<?xml version="1.0" encoding="UTF-8"?>
<svg width="1200pt" height="1200pt" version="1.1" viewBox="0 0 1200 1200" xmlns="http://www.w3.org/2000/svg">
 <g fill="#124d4a">
  <path d="m831.68 327.62c-41.23-34.105-87.207-52.125-132.98-52.125-43.82 0-84.676 17.418-115.03 49.07-32.945 34.352-53.102 84.188-58.273 144.17v0.26172c39.695 210.71-106.69 297.56-224.32 367.33-33.449 19.855-65.062 38.605-90.168 58.574-59.605 38.906-87.242 103.07-72.133 167.46 15.227 64.836 70.238 112.07 140.2 120.3 5.6797 0.65625 11.477 1.0117 17.23 1.0117 34.555 0 70.012-12.242 99.844-34.461l108.21-80.477c36.133-33.281 65.738-62.477 94.367-90.711 69.711-68.719 129.92-128.08 249.38-210.73 0.99219-0.67578 1.9883-1.3867 3-2.082 1.125-0.80469 2.25-1.5938 3.375-2.3633 86.625-61.781 121.07-175.35 83.758-276.19-24.695-66.898-61.504-121.88-106.45-159.04zm-227.38 97.145c5.4922-12.617 13.012-22.273 22.367-28.648 9.2812-6.4297 19.855-9.6953 31.426-9.6953 12.582 0 23.512 4.1055 32.531 12.188 8.9062 7.9883 15.262 19.801 18.938 35.117l-15.523 4.6484c-6.0938-23.062-18.32-34.742-36.301-34.742-9.0391 0-16.988 2.4375-23.605 7.2383-6.6367 4.8203-12 12.375-15.938 22.426-3.8984 10.086-5.8867 22.93-5.8867 38.176 0 23.102 4.0117 40.742 11.926 52.406 7.9688 11.773 18.75 17.738 32.023 17.738 9.7891 0 18.395-3.6758 25.555-10.93 6.8984-7.0117 11.645-17.645 14.062-31.648l15.918 5.0625c-3.918 18.262-10.688 32.023-20.137 40.988-9.5625 9.0938-21.355 13.707-35.082 13.707-12.094 0-22.555-3.0938-31.105-9.1875-8.5312-6.0938-15.656-16.051-21.168-29.625-5.5117-13.633-8.3047-29.945-8.3047-48.508 0-18.359 2.793-34.074 8.3047-46.711zm124.59 49.012c0-27.938 3.6758-49.387 10.914-63.73 7.1641-14.137 17.852-21.32 31.727-21.32 12.301 0 22.125 5.8125 29.23 17.25 8.7383 14.062 13.18 36.863 13.18 67.82 0 27.824-3.6562 49.238-10.875 63.637-7.1055 14.176-17.793 21.375-31.762 21.375-12.32 0-22.555-6.3359-30.414-18.824-7.9688-12.73-12-34.988-12-66.207zm117.41 98.215c8.8125-9.1133 14.625-16.164 17.27-20.926 2.5117-4.6484 3.7695-8.9062 3.7695-12.676 0-4.3125-1.1445-7.707-3.5078-10.352-2.2891-2.5508-5.0625-3.7891-8.4766-3.7891-3.6758 0-6.582 1.3516-8.8672 4.1055-2.3984 2.8672-3.6016 7.1797-3.6016 12.824v3.375l-15.805-2.043 0.20703-2.8125c0.73047-10.18 3.6367-18.055 8.6055-23.398 5.082-5.3633 11.758-8.082 19.836-8.082 8.8867 0 15.75 3.2266 20.398 9.5625 4.4805 6.1328 6.7695 13.18 6.7695 20.906 0 6.75-1.7617 13.367-5.1953 19.668-3.3555 5.9805-9.5078 13.742-18.789 23.719-6.0742 6.4883-9.4492 10.238-10.93 12.207 0 0-0.11328 0.1875-0.11328 0.20703-0.28125 0.26172-0.35547 0.67578-0.20703 1.0117 0.14844 0.35547 0.48828 0.58203 0.86328 0.58203h34.539v17.699h-57.523l-0.09375-2.9258c-0.11328-5.2891 1.3867-11.117 4.4609-17.363 3.0391-6.1445 8.5508-13.383 16.391-21.5z"/>
  <path d="m771.79 543.66c7.8008 0 14.398-4.9297 19.594-14.664 5.082-9.4688 7.668-28.051 7.668-55.219 0-27.469-2.6055-46.145-7.7422-55.5-5.1758-9.5625-12.094-14.418-20.531-14.418-7.7617 0-14.305 4.9297-19.445 14.664-5.1367 9.6367-7.6328 27.73-7.6328 55.258 0 27.789 2.5312 45.898 7.7422 55.406 5.1953 9.5977 12.039 14.473 20.348 14.473z"/>
  <path d="m704.02 225.26c12.844 8.6055 28.238 13.164 44.551 13.164 36.918 0 74.926-22.461 99.188-58.648 36.188-53.945 30.617-121.35-12.414-150.23-12.824-8.6055-28.219-13.164-44.512-13.164-36.918 0-74.926 22.48-99.207 58.648-17.512 26.102-25.895 56.082-23.586 84.43 2.3242 28.43 15.113 51.809 35.98 65.797z"/>
  <path d="m857.96 202.11c-10.555 15.73-15.375 33.957-13.594 51.301 1.8008 17.418 10.031 31.875 23.195 40.707 8.3984 5.625 18.43 8.6055 29.008 8.6055 22.555 0 45.469-13.273 59.812-34.613 10.555-15.73 15.375-33.977 13.594-51.32-1.8008-17.418-10.051-31.875-23.211-40.707-8.3984-5.6445-18.43-8.625-29.008-8.625-22.539 0.003906-45.469 13.277-59.797 34.652z"/>
  <path d="m1021.1 369.71c8.418-12.543 12.281-27.094 10.855-40.93-1.4258-13.895-8.0078-25.426-18.523-32.477-6.7109-4.5-14.719-6.8828-23.156-6.8828-17.961 0-36.242 10.574-47.68 27.617-8.418 12.543-12.262 27.055-10.836 40.914 1.4453 13.895 8.0234 25.445 18.543 32.492 6.6953 4.5 14.699 6.8828 23.137 6.8828 17.977 0.003906 36.238-10.59 47.66-27.617z"/>
  <path d="m991.09 508.65c6.0547 4.0703 13.293 6.2266 20.945 6.2266 16.293 0 32.812-9.5625 43.125-24.977 15.75-23.477 12.656-53.25-6.918-66.414-6.0938-4.0859-13.332-6.2422-20.98-6.2422-16.258 0-32.773 9.582-43.105 24.992-8.5117 12.656-11.852 27.695-9.1875 41.27 2.0781 10.652 7.8164 19.598 16.121 25.145z"/>
  <path d="m1044.5 558c-5.082-3.4141-11.117-5.1953-17.492-5.1953-13.574 0-27.355 7.9883-35.961 20.832-13.125 19.555-10.539 44.418 5.8125 55.387 5.082 3.4141 11.137 5.1953 17.531 5.1953 13.574 0 27.355-7.9883 35.961-20.832 13.105-19.574 10.5-44.398-5.8516-55.387z"/>
 </g>
</svg>
