<?xml version="1.0" encoding="UTF-8" standalone="no"?><!DOCTYPE svg PUBLIC "-//W3C//DTD SVG 1.1//EN" "http://www.w3.org/Graphics/SVG/1.1/DTD/svg11.dtd"><svg width="100%" height="100%" viewBox="0 0 534 534" version="1.1" xmlns="http://www.w3.org/2000/svg" xmlns:xlink="http://www.w3.org/1999/xlink" xml:space="preserve" xmlns:serif="http://www.serif.com/" style="fill-rule:evenodd;clip-rule:evenodd;stroke-linejoin:round;stroke-miterlimit:2;"><g><path d="M62.339,225.787l-0.078,-0.015c0,0 28.494,27.958 28.494,65.298c0,31.249 -2.766,107.219 -3.677,131.203l39.357,0l5.763,-51.447c0.232,-2.117 2.148,-3.727 4.404,-3.727c2.395,0 4.358,1.784 4.435,4.031l1.777,51.158l37.225,-0c-0.062,-28.451 -1.885,-86.513 -3.291,-123.371c0.062,-4.901 0.989,-9.788 3.198,-14.225c7.093,-14.225 5.903,-29.19 4.018,-38.774c-1.422,-7.235 -0.031,-14.689 4.033,-20.967l6.088,-9.412l-0.031,0.029c20.66,-24.593 24.585,-58.481 25.049,-76.998c0.185,-7.381 -6.212,-13.413 -14.062,-13.413c-7.557,0 -13.768,5.568 -14.046,12.645c-1.005,25.173 -9.921,79.114 -67.961,79.114c-58.04,-0 -66.956,-53.942 -67.961,-79.114c-0.278,-7.077 -6.505,-12.645 -14.046,-12.645c-7.866,0 -14.247,6.047 -14.062,13.413c0.51,21.273 5.625,62.773 35.371,87.222l0.003,-0.005Z" style="fill:#124d4a;fill-rule:nonzero;"/><path d="M88.067,150.775c-3.569,5.583 -5.671,12.093 -5.671,19.083c0,20.504 17.709,37.121 39.558,37.121c21.85,0 39.558,-16.617 39.558,-37.121c0,-20.504 -17.708,-37.122 -39.558,-37.122c-4.141,-0 -8.128,0.609 -11.883,1.711c-0.092,-9.165 -8.004,-16.56 -17.785,-16.56c-9.828,0 -17.802,7.483 -17.802,16.705c0,7.86 5.795,14.399 13.583,16.183l0,-0Zm33.887,48.782c-13.814,-0 -25.558,-8.367 -29.869,-19.968c27.257,-0.754 36.776,-15.69 40.02,-27.493c4.404,2.175 10.477,4.205 18.296,4.843c2.024,3.916 3.199,8.295 3.199,12.921c-0,16.371 -14.201,29.697 -31.647,29.697l0.001,-0Z" style="fill:#124d4a;fill-rule:nonzero;"/><path d="M275.753,256.07l0.093,0c7.232,8.744 18.512,14.399 31.229,14.399c21.85,0 39.558,-16.618 39.558,-37.121c0,-20.504 -17.708,-37.122 -39.558,-37.122c-9.781,-0 -18.713,3.349 -25.62,8.874l-0.046,0.015l-0.417,0.377l-3.292,3.059l-24.492,22.766c-2.441,2.364 -2.936,5.931 -1.221,8.802c3.724,6.236 11.497,15.951 23.766,15.951l0,0Zm31.322,6.975c-8.622,0 -16.441,-3.263 -22.158,-8.526c11.249,-4.148 16.286,-15.734 21.787,-23.999c6.367,-9.556 18.451,-13.979 25.018,-15.762c4.373,5.09 7,11.557 7,18.59c-0,16.371 -14.201,29.697 -31.647,29.697l0,0Z" style="fill:#124d4a;fill-rule:nonzero;"/><path d="M389.732,215.556c-8.113,-3.002 -17.291,0.71 -20.552,8.308l-10.971,25.58c-8.329,19.431 -28.416,32.162 -50.729,32.162l-16.518,0c-14.139,0 -27.197,7.077 -34.259,18.576l-44.965,73.141c-3.848,6.264 -1.499,14.283 5.238,17.807c6.088,3.19 13.768,1.609 17.894,-3.669l39.866,-51.172l-10.538,64.109l3.322,0c37.132,0 71.05,-13.065 96.886,-34.526c0.54,-27.943 -4.497,-44.472 -4.497,-44.472l38.646,-86.193c3.446,-7.715 -0.525,-16.574 -8.823,-19.649l0,-0.002Z" style="fill:#124d4a;fill-rule:nonzero;"/><path d="M515.742,148.851l-29.141,-60.597c-1.246,-50.962 -39.241,-81.952 -40.879,-83.264c-1.57,-1.259 -3.788,-1.259 -5.358,0c-1.604,1.277 -37.62,30.675 -40.691,79.221l-31.069,64.622c-2.866,5.963 1.348,12.924 7.831,12.924l22.931,-0l-0,8.954c-0,2.466 1.945,4.477 4.368,4.477l20.934,-0l-4.282,11.874c-1.041,2.938 1.074,6.034 4.111,6.034l14.178,0l0,98.495c0,55.108 -24.926,104.212 -63.808,136.201c-29.175,24.011 -66.214,38.404 -106.532,38.404l-240.225,0c-4.828,0 -8.735,4.005 -8.735,8.954l-0,36.166c-0,4.967 3.941,8.954 8.718,8.954c0.171,0 0.324,0 0.495,-0.017l238.862,-13.641c102.213,-5.824 181.753,-93.284 180.22,-198.212l-0.256,-18.888l0,-96.413l14.178,-0c3.037,-0 5.153,-3.096 4.095,-6.034l-4.265,-11.874l20.934,-0c2.423,-0 4.368,-2.012 4.368,-4.477l-0,-8.955l21.19,0c6.467,0 10.698,-6.96 7.832,-12.906l-0.004,-0.002Zm-68.333,17.383l-0,-35.816c-0,-2.466 -1.945,-4.477 -4.368,-4.477c-2.422,-0 -4.367,2.011 -4.367,4.477l-0,35.816l-30.574,0l-0,-75.478c-0,-7.048 0.836,-13.694 2.217,-19.937c5.409,-24.693 19.655,-42.847 28.357,-52.01l-0,31.025c-0,2.466 1.945,4.477 4.367,4.477c2.423,-0 4.368,-2.011 4.368,-4.477l-0,-31.06c7.712,8.098 19.791,23.242 26.223,43.809c2.662,8.517 4.351,17.943 4.351,28.192l-0,75.46l-30.574,-0.001Z" style="fill:#124d4a;fill-rule:nonzero;"/><path d="M450.004,56.859c-10.925,-0 -19.779,8.309 -19.779,18.561c-0,10.251 8.854,18.56 19.779,18.56c10.924,0 19.779,-8.309 19.779,-18.56c-0,-10.252 -8.855,-18.561 -19.779,-18.561Zm-0,29.697c-6.536,0 -11.868,-5.003 -11.868,-11.136c0,-6.134 5.332,-11.137 11.868,-11.137c6.536,-0 11.867,5.003 11.867,11.137c0,6.133 -5.331,11.136 -11.867,11.136Z" style="fill:#124d4a;fill-rule:nonzero;"/></g><g id="Text"></g></svg>