<?xml version="1.0" encoding="UTF-8"?>
<svg width="128pt" height="128pt" version="1.1" viewBox="0 0 128 128" xmlns="http://www.w3.org/2000/svg">
 <g>
  <path d="m128 64c0 35.348-28.652 64-64 64s-64-28.652-64-64 28.652-64 64-64 64 28.652 64 64" fill="#124d4a"/>
  <path d="m33.727 57.746-0.011718-0.003906s4.5352 4.7422 4.5352 11.078c0 5.3008-0.44141 18.188-0.58594 22.258h6.2656l0.91797-8.7305c0.039063-0.35938 0.33984-0.63281 0.70312-0.63281 0.38281 0 0.69141 0.30078 0.70703 0.68359l0.28125 8.6797h5.9258c-0.007813-4.8242-0.30078-14.676-0.52344-20.93 0.011719-0.83203 0.15625-1.6602 0.50781-2.4141 1.1289-2.4141 0.9375-4.9531 0.64062-6.5781-0.22656-1.2266-0.003906-2.4922 0.64062-3.5586l0.96875-1.5977-0.003907 0.011719c3.2891-4.1719 3.9141-9.9219 3.9883-13.062 0.027344-1.25-0.98828-2.2773-2.2383-2.2773-1.2031 0-2.1914 0.94531-2.2383 2.1445-0.16016 4.2695-1.5781 13.422-10.82 13.422-9.2383 0-10.66-9.1523-10.82-13.422-0.042968-1.1992-1.0352-2.1445-2.2383-2.1445-1.25 0-2.2695 1.0234-2.2383 2.2773 0.085937 3.6055 0.90234 10.648 5.6367 14.797z" fill="#fbd24c"/>
  <path d="m37.824 45.02c-0.57031 0.94531-0.90234 2.0508-0.90234 3.2383 0 3.4766 2.8203 6.2969 6.2969 6.2969s6.2969-2.8203 6.2969-6.2969c0-3.4766-2.8203-6.2969-6.2969-6.2969-0.66016 0-1.293 0.10156-1.8906 0.28906-0.015625-1.5547-1.2773-2.8125-2.832-2.8125-1.5664 0-2.832 1.2695-2.832 2.832-0.003906 1.3359 0.92188 2.4453 2.1602 2.75zm5.3945 8.2734c-2.1992 0-4.0703-1.418-4.7539-3.3867 4.3398-0.12891 5.8555-2.6602 6.3711-4.6641 0.70312 0.36719 1.668 0.71484 2.9141 0.82031 0.32031 0.66797 0.50781 1.4062 0.50781 2.1953 0 2.7773-2.2617 5.0352-5.0391 5.0352z" fill="#fbd24c"/>
  <path d="m65.941 66.598h0.011719c1.1523 1.4805 2.9492 2.4414 4.9727 2.4414 3.4766 0 6.2969-2.8203 6.2969-6.2969 0-3.4766-2.8203-6.2969-6.2969-6.2969-1.5586 0-2.9805 0.56641-4.0781 1.5039l-0.007812 0.003906-0.066406 0.066406-0.52344 0.51953-3.8984 3.8633c-0.38672 0.40234-0.46875 1.0078-0.19531 1.4922 0.59375 1.0547 1.832 2.7031 3.7852 2.7031zm4.9844 1.1797c-1.375 0-2.6172-0.55469-3.5273-1.4492 1.7891-0.70312 2.5938-2.6719 3.4688-4.0703 1.0156-1.6211 2.9375-2.3711 3.9844-2.6758 0.69531 0.86719 1.1133 1.9648 1.1133 3.1602 0 2.7773-2.2578 5.0352-5.0391 5.0352z" fill="#fbd24c"/>
  <path d="m84.086 59.723c-1.293-0.50781-2.7539 0.12109-3.2734 1.4102l-1.7461 4.3398c-1.3242 3.2969-4.5234 5.4531-8.0742 5.4531h-2.6289c-2.25 0-4.332 1.1992-5.4531 3.1523l-7.1602 12.406c-0.61328 1.0625-0.23828 2.4219 0.83594 3.0195 0.96875 0.54297 2.1914 0.27344 2.8477-0.62109l6.3438-8.6797-1.6758 10.875h0.52734c5.9102 0 11.312-2.2148 15.426-5.8594 0.085937-4.7383-0.71484-7.543-0.71484-7.543l6.1523-14.621c0.54687-1.3086-0.085938-2.8125-1.4062-3.332z" fill="#fbd24c"/>
  <path d="m100.3 47.699-4.1992-8.5234c-0.17969-7.168-5.6562-11.527-5.8945-11.711-0.22656-0.17578-0.54688-0.17578-0.77344 0-0.23047 0.17969-5.4258 4.3164-5.8672 11.145l-4.4805 9.0898c-0.41406 0.83594 0.19531 1.8164 1.1289 1.8164h3.3086v1.2578c0 0.34766 0.28125 0.62891 0.62891 0.62891h3.0195l-0.61719 1.6719c-0.15234 0.41406 0.15234 0.85156 0.58984 0.85156h2.043v13.855c0 7.75-3.5938 14.656-9.2031 19.16-4.2031 3.375-9.5391 5.3984-15.355 5.3984h-34.637c-0.69531 0-1.2578 0.5625-1.2578 1.2578v5.0898c0 0.69922 0.56641 1.2578 1.2578 1.2578 0.023437 0 0.046874 0 0.070312-0.003906l34.441-1.918c14.738-0.82031 26.207-13.121 25.984-27.883l-0.039062-2.6523v-13.562h2.043c0.4375 0 0.74219-0.4375 0.58984-0.84766l-0.61328-1.6719h3.0195c0.34766 0 0.62891-0.28125 0.62891-0.62891v-1.2578h3.0547c0.93359-0.003906 1.543-0.98438 1.1289-1.8203zm-9.8516 2.4453v-5.0391c0-0.34766-0.28125-0.62891-0.62891-0.62891-0.34766 0-0.62891 0.28125-0.62891 0.62891v5.0391h-4.4102v-10.613c0-0.99219 0.12109-1.9258 0.32031-2.8047 0.78125-3.4766 2.8359-6.0312 4.0898-7.3203v4.3672c0 0.34766 0.28125 0.62891 0.62891 0.62891 0.34766 0 0.62891-0.28125 0.62891-0.62891v-4.3711c1.1094 1.1406 2.8555 3.2695 3.7812 6.1602 0.38281 1.1992 0.62891 2.5273 0.62891 3.9688v10.613z" fill="#fbd24c"/>
  <path d="m89.82 36.289c-1.7383 0-3.1484 1.4102-3.1484 3.1484s1.4102 3.1484 3.1484 3.1484c1.7383 0 3.1484-1.4102 3.1484-3.1484s-1.4102-3.1484-3.1484-3.1484zm0 5.0391c-1.043 0-1.8906-0.84766-1.8906-1.8906s0.84766-1.8906 1.8906-1.8906c1.043 0 1.8906 0.84766 1.8906 1.8906s-0.84766 1.8906-1.8906 1.8906z" fill="#fbd24c"/>
 </g>
</svg>
