<?xml version="1.0" encoding="UTF-8" standalone="no"?><!DOCTYPE svg PUBLIC "-//W3C//DTD SVG 1.1//EN" "http://www.w3.org/Graphics/SVG/1.1/DTD/svg11.dtd"><svg width="100%" height="100%" viewBox="0 0 534 534" version="1.1" xmlns="http://www.w3.org/2000/svg" xmlns:xlink="http://www.w3.org/1999/xlink" xml:space="preserve" xmlns:serif="http://www.serif.com/" style="fill-rule:evenodd;clip-rule:evenodd;stroke-linejoin:round;stroke-miterlimit:2;"><g><path d="M92.405,182.26l-0.072,-0.014c0,-0 26.582,27.792 26.582,64.912c-0,31.065 -2.58,106.586 -3.431,130.429l36.715,0l5.377,-51.143c0.216,-2.105 2.004,-3.705 4.109,-3.705c2.234,-0 4.065,1.773 4.137,4.007l1.657,50.856l34.727,0c-0.058,-28.283 -1.759,-86.002 -3.071,-122.643c0.058,-4.872 0.923,-9.73 2.984,-14.141c6.617,-14.141 5.507,-29.018 3.748,-38.545c-1.326,-7.193 -0.029,-14.602 3.762,-20.844l5.68,-9.356l-0.029,0.029c19.273,-24.448 22.935,-58.137 23.367,-76.544c0.173,-7.337 -5.795,-13.334 -13.118,-13.334c-7.049,0 -12.844,5.536 -13.103,12.57c-0.937,25.024 -9.255,78.647 -63.399,78.647c-54.144,0 -62.462,-53.623 -63.399,-78.647c-0.26,-7.034 -6.069,-12.57 -13.104,-12.57c-7.337,0 -13.291,6.011 -13.118,13.334c0.476,21.147 5.248,62.403 32.997,86.707l0.002,-0.005Z" style="fill:#124d4a;fill-rule:nonzero;"/><path d="M116.407,107.691c-3.33,5.55 -5.29,12.022 -5.29,18.97c-0,20.383 16.52,36.903 36.902,36.903c20.383,-0 36.903,-16.52 36.903,-36.903c0,-20.383 -16.52,-36.903 -36.903,-36.903c-3.863,0 -7.582,0.606 -11.085,1.701c-0.086,-9.11 -7.467,-16.462 -16.592,-16.462c-9.168,0 -16.606,7.438 -16.606,16.606c0,7.813 5.406,14.315 12.671,16.088l0,-0Zm31.612,48.494c-12.887,-0 -23.842,-8.318 -27.864,-19.85c25.428,-0.75 34.308,-15.597 37.334,-27.331c4.109,2.162 9.774,4.18 17.068,4.815c1.888,3.892 2.984,8.245 2.984,12.844c-0,16.275 -13.247,29.522 -29.522,29.522l0,-0Z" style="fill:#124d4a;fill-rule:nonzero;"/><path d="M281.171,234.127l0.086,0c6.747,8.693 17.27,14.314 29.133,14.314c20.383,0 36.903,-16.519 36.903,-36.902c0,-20.383 -16.52,-36.903 -36.903,-36.903c-9.125,-0 -17.457,3.33 -23.9,8.822l-0.044,0.014l-0.389,0.375l-3.07,3.042l-22.848,22.631c-2.278,2.35 -2.739,5.896 -1.139,8.75c3.474,6.199 10.725,15.857 22.171,15.857l-0,0Zm29.219,6.934c-8.043,-0 -15.337,-3.244 -20.671,-8.476c10.494,-4.123 15.194,-15.641 20.325,-23.857c5.939,-9.5 17.212,-13.896 23.338,-15.67c4.08,5.06 6.53,11.489 6.53,18.481c0,16.274 -13.247,29.522 -29.522,29.522l0,-0Z" style="fill:#124d4a;fill-rule:nonzero;"/><path d="M387.499,193.851c-7.568,-2.983 -16.131,0.707 -19.172,8.26l-10.235,25.429c-7.77,19.316 -26.509,31.973 -47.324,31.973l-15.41,-0c-13.19,-0 -25.371,7.034 -31.958,18.465l-41.948,72.71c-3.589,6.227 -1.398,14.199 4.887,17.702c5.679,3.171 12.844,1.6 16.692,-3.647l37.191,-50.871l-9.831,63.732l3.099,-0c34.64,-0 66.281,-12.988 90.382,-34.323c0.505,-27.778 -4.194,-44.21 -4.194,-44.21l36.052,-85.684c3.214,-7.669 -0.49,-16.477 -8.231,-19.533l-0,-0.003Z" style="fill:#124d4a;fill-rule:nonzero;"/><path d="M482.513,124.113l-24.373,-50.245c-1.041,-42.256 -32.82,-67.952 -34.19,-69.039c-1.313,-1.044 -3.168,-1.044 -4.481,-0c-1.341,1.058 -31.465,25.434 -34.033,65.687l-25.986,53.582c-2.397,4.945 1.128,10.716 6.55,10.716l19.179,0l-0,7.425c-0,2.044 1.627,3.712 3.653,3.712l17.509,0l-3.582,9.846c-0.87,2.436 0.899,5.003 3.439,5.003l11.858,-0l0,81.669c0,45.693 -20.848,86.409 -53.367,112.933c-24.401,19.909 -55.38,31.843 -89.102,31.843l-200.918,0c-4.039,0 -7.306,3.321 -7.306,7.425l-0,29.987c-0,4.119 3.296,7.425 7.292,7.425c0.142,-0 0.271,-0 0.413,-0.015l199.779,-11.31c85.489,-4.829 152.015,-77.348 150.733,-164.351l-0.215,-15.661l0,-79.943l11.859,0c2.54,0 4.309,-2.567 3.424,-5.003l-3.567,-9.846l17.509,0c2.026,0 3.653,-1.667 3.653,-3.712l0,-7.424l17.723,-0c5.409,-0 8.947,-5.772 6.55,-10.702l-0.003,-0.002Zm-57.152,14.414l-0,-29.698c-0,-2.044 -1.627,-3.712 -3.653,-3.712c-2.026,0 -3.653,1.668 -3.653,3.712l-0,29.698l-25.572,-0l0,-62.584c0,-5.844 0.7,-11.354 1.856,-16.531c4.523,-20.475 16.438,-35.527 23.716,-43.125l-0,25.725c-0,2.044 1.627,3.712 3.653,3.712c2.026,-0 3.653,-1.668 3.653,-3.712l0,-25.754c6.45,6.714 16.553,19.272 21.933,36.325c2.226,7.062 3.638,14.878 3.638,23.375l0,62.57l-25.571,-0.001Z" style="fill:#124d4a;fill-rule:nonzero;"/><path d="M421.099,56.547c-10.191,0 -18.451,8.26 -18.451,18.451c-0,10.192 8.26,18.452 18.451,18.452c10.191,-0 18.451,-8.26 18.451,-18.452c0,-10.191 -8.26,-18.451 -18.451,-18.451Zm-0,29.522c-6.097,0 -11.071,-4.973 -11.071,-11.071c0,-6.097 4.974,-11.07 11.071,-11.07c6.097,-0 11.071,4.973 11.071,11.07c-0,6.098 -4.974,11.071 -11.071,11.071Z" style="fill:#124d4a;fill-rule:nonzero;"/></g><g id="Text"><path d="M51.737,461.54c-0,1.354 -0.462,2.492 -1.384,3.415c-0.923,0.923 -2.092,1.385 -3.508,1.385l-4.891,-0l-0,53.438c-0,1.292 -0.462,2.43 -1.385,3.415c-0.923,0.984 -2.061,1.476 -3.414,1.476c-1.354,0 -2.508,-0.477 -3.461,-1.43c-0.954,-0.954 -1.431,-2.108 -1.431,-3.461l-0,-53.438l-4.892,-0c-1.353,-0 -2.492,-0.462 -3.414,-1.385c-0.923,-0.923 -1.385,-2.061 -1.385,-3.415c0,-1.415 0.462,-2.584 1.385,-3.507c0.922,-0.923 2.061,-1.384 3.414,-1.384l19.474,-0c1.354,-0 2.508,0.477 3.461,1.43c0.954,0.954 1.431,2.108 1.431,3.461Z" style="fill:#134e4a;fill-rule:nonzero;"/><path d="M85.147,471.231l0,24.273c0,3.569 -1.076,6.707 -3.23,9.414c-2.707,3.446 -6.491,5.169 -11.352,5.169l-4.892,-0c0,1.723 0.523,3.015 1.569,3.876c0.8,0.615 1.908,0.923 3.323,0.923l4.799,0c1.354,0 2.508,0.477 3.461,1.431c0.954,0.953 1.431,2.107 1.431,3.461c-0,1.353 -0.477,2.507 -1.431,3.461c-0.953,0.953 -2.107,1.43 -3.461,1.43l-4.799,0c-3.63,0 -6.799,-1.076 -9.506,-3.23c-3.384,-2.646 -5.077,-6.43 -5.077,-11.352l0,-38.856c0,-3.63 1.077,-6.799 3.231,-9.506c2.646,-3.384 6.43,-5.076 11.352,-5.076c4.861,-0 8.614,1.692 11.26,5.076c2.215,2.769 3.322,5.937 3.322,9.506Zm-9.783,0c0,-1.353 -0.307,-2.43 -0.923,-3.23c-0.861,-1.108 -2.153,-1.661 -3.876,-1.661c-1.784,-0 -3.046,0.476 -3.784,1.43c-0.738,0.954 -1.108,2.108 -1.108,3.461l0,29.165l4.892,-0c1.723,-0 3.015,-0.523 3.876,-1.569c0.616,-0.8 0.923,-1.907 0.923,-3.323l0,-24.273Z" style="fill:#134e4a;fill-rule:nonzero;"/><path d="M119.85,471.231l-0,4.799c-0,1.354 -0.477,2.508 -1.431,3.461c-0.953,0.954 -2.107,1.431 -3.461,1.431c-1.353,-0 -2.507,-0.477 -3.461,-1.431c-0.953,-0.953 -1.43,-2.107 -1.43,-3.461l-0,-4.799c-0,-1.353 -0.308,-2.43 -0.923,-3.23c-0.862,-1.108 -2.154,-1.661 -3.877,-1.661c-1.784,-0 -3.045,0.476 -3.784,1.43c-0.738,0.954 -1.107,2.108 -1.107,3.461l-0,48.547c-0,1.353 -0.477,2.507 -1.431,3.461c-0.953,0.953 -2.107,1.43 -3.461,1.43c-1.353,0 -2.492,-0.461 -3.415,-1.384c-0.923,-0.923 -1.384,-2.092 -1.384,-3.507l-0,-48.547c-0,-3.63 1.077,-6.799 3.23,-9.506c2.646,-3.384 6.43,-5.076 11.352,-5.076c4.861,-0 8.614,1.692 11.26,5.076c2.215,2.769 3.323,5.937 3.323,9.506Z" style="fill:#134e4a;fill-rule:nonzero;"/><path d="M154.552,471.231l0,24.273c0,3.569 -1.076,6.707 -3.23,9.414c-2.707,3.446 -6.491,5.169 -11.352,5.169l-4.892,-0c0,1.723 0.523,3.015 1.569,3.876c0.8,0.615 1.908,0.923 3.323,0.923l4.799,0c1.354,0 2.507,0.477 3.461,1.431c0.954,0.953 1.431,2.107 1.431,3.461c-0,1.353 -0.477,2.507 -1.431,3.461c-0.954,0.953 -2.107,1.43 -3.461,1.43l-4.799,0c-3.63,0 -6.799,-1.076 -9.506,-3.23c-3.384,-2.646 -5.077,-6.43 -5.077,-11.352l0,-38.856c0,-3.63 1.077,-6.799 3.231,-9.506c2.645,-3.384 6.43,-5.076 11.352,-5.076c4.861,-0 8.614,1.692 11.26,5.076c2.215,2.769 3.322,5.937 3.322,9.506Zm-9.783,0c0,-1.353 -0.307,-2.43 -0.923,-3.23c-0.861,-1.108 -2.153,-1.661 -3.876,-1.661c-1.784,-0 -3.046,0.476 -3.784,1.43c-0.739,0.954 -1.108,2.108 -1.108,3.461l0,29.165l4.892,-0c1.723,-0 3.015,-0.523 3.876,-1.569c0.616,-0.8 0.923,-1.907 0.923,-3.323l0,-24.273Z" style="fill:#134e4a;fill-rule:nonzero;"/><path d="M177.903,492.459c-0.677,1.723 -1.431,3.584 -2.262,5.584c-0.83,1.999 -1.676,4.137 -2.538,6.414c-1.722,4.369 -2.922,7.845 -3.599,10.429l13.567,0c1.354,0 2.507,0.477 3.461,1.431c0.954,0.953 1.431,2.107 1.431,3.461c-0,1.353 -0.477,2.507 -1.431,3.461c-0.954,0.953 -2.107,1.43 -3.461,1.43l-19.474,0c-1.354,0 -2.492,-0.461 -3.415,-1.384c-0.923,-0.923 -1.384,-2.092 -1.384,-3.507c-0,-2.215 0.892,-6.061 2.676,-11.537c1.354,-4.184 3.815,-10.645 7.384,-19.382c0.492,-1.353 1.03,-2.784 1.615,-4.291c0.585,-1.508 1.215,-3.061 1.892,-4.661c1.231,-3.138 2.246,-5.83 3.046,-8.076c0.8,-2.246 1.415,-4.076 1.846,-5.491l-13.66,-0c-1.354,-0 -2.492,-0.462 -3.415,-1.385c-0.923,-0.923 -1.384,-2.061 -1.384,-3.415c-0,-1.415 0.461,-2.584 1.384,-3.507c0.923,-0.923 2.061,-1.384 3.415,-1.384l19.474,-0c1.354,-0 2.507,0.477 3.461,1.43c0.954,0.954 1.431,2.108 1.431,3.461c-0,1.723 -0.416,4.03 -1.246,6.922c-0.831,2.892 -1.954,6.276 -3.369,10.153c-0.062,0.184 -0.538,1.43 -1.431,3.738c-0.892,2.307 -2.23,5.676 -4.014,10.106Z" style="fill:#134e4a;fill-rule:nonzero;"/><path d="M221.373,471.231l0,38.856c0,3.569 -1.077,6.707 -3.23,9.414c-2.708,3.445 -6.492,5.168 -11.352,5.168c-4.861,0 -8.614,-1.692 -11.26,-5.076c-2.215,-2.83 -3.323,-5.999 -3.323,-9.506l0,-24.273c0,-3.631 1.077,-6.799 3.23,-9.507c2.646,-3.384 6.43,-5.076 11.353,-5.076l4.799,0c-0,-1.784 -0.477,-3.046 -1.431,-3.784c-0.953,-0.738 -2.076,-1.107 -3.368,-1.107l-4.892,-0c-1.292,-0 -2.43,-0.462 -3.415,-1.385c-0.984,-0.923 -1.477,-2.061 -1.477,-3.415c0,-1.415 0.462,-2.584 1.385,-3.507c0.923,-0.923 2.092,-1.384 3.507,-1.384l4.892,-0c3.568,-0 6.706,1.076 9.414,3.23c3.445,2.707 5.168,6.491 5.168,11.352Zm-9.783,38.856l-0,-29.165l-4.799,-0c-1.785,-0 -3.046,0.477 -3.784,1.431c-0.739,0.953 -1.108,2.107 -1.108,3.461l0,24.181c0,1.415 0.354,2.584 1.061,3.507c0.708,0.923 1.985,1.384 3.831,1.384c1.722,0 3.015,-0.523 3.876,-1.569c0.615,-0.8 0.923,-1.877 0.923,-3.23Z" style="fill:#134e4a;fill-rule:nonzero;"/><path d="M290.778,471.231l0,4.799c0,1.354 -0.477,2.508 -1.431,3.461c-0.953,0.954 -2.107,1.431 -3.461,1.431c-1.353,-0 -2.507,-0.477 -3.461,-1.431c-0.953,-0.953 -1.43,-2.107 -1.43,-3.461l-0,-4.799c-0,-1.353 -0.308,-2.43 -0.923,-3.23c-0.861,-1.108 -2.154,-1.661 -3.876,-1.661c-1.785,-0 -3.046,0.476 -3.784,1.43c-0.739,0.954 -1.108,2.108 -1.108,3.461l0,38.764c0,1.415 0.354,2.584 1.061,3.507c0.708,0.923 1.985,1.384 3.831,1.384c1.722,0 3.015,-0.523 3.876,-1.569c0.615,-0.8 0.923,-1.877 0.923,-3.23l-0,-4.892c-0,-1.353 0.461,-2.492 1.384,-3.415c0.923,-0.923 2.092,-1.384 3.507,-1.384c1.293,-0 2.431,0.461 3.415,1.384c0.985,0.923 1.477,2.062 1.477,3.415l0,4.892c0,3.569 -1.077,6.707 -3.23,9.414c-2.708,3.445 -6.492,5.168 -11.352,5.168c-4.861,0 -8.615,-1.692 -11.26,-5.076c-2.215,-2.83 -3.323,-5.999 -3.323,-9.506l0,-38.856c0,-3.63 1.077,-6.799 3.23,-9.506c2.646,-3.384 6.43,-5.076 11.353,-5.076c4.86,-0 8.614,1.692 11.259,5.076c2.215,2.769 3.323,5.937 3.323,9.506Z" style="fill:#134e4a;fill-rule:nonzero;"/><path d="M325.48,471.231l0,38.856c0,3.569 -1.076,6.707 -3.23,9.414c-2.707,3.445 -6.491,5.168 -11.352,5.168c-4.861,0 -8.614,-1.692 -11.26,-5.076c-2.215,-2.83 -3.322,-5.999 -3.322,-9.506l-0,-38.856c-0,-3.63 1.076,-6.799 3.23,-9.506c2.646,-3.384 6.43,-5.076 11.352,-5.076c4.861,-0 8.614,1.692 11.26,5.076c2.215,2.769 3.322,5.937 3.322,9.506Zm-9.783,0c0,-1.353 -0.307,-2.43 -0.923,-3.23c-0.861,-1.108 -2.153,-1.661 -3.876,-1.661c-1.784,-0 -3.046,0.476 -3.784,1.43c-0.738,0.954 -1.108,2.108 -1.108,3.461l0,38.764c0,1.415 0.354,2.584 1.062,3.507c0.707,0.923 1.984,1.384 3.83,1.384c1.723,0 3.015,-0.523 3.876,-1.569c0.616,-0.8 0.923,-1.877 0.923,-3.23l0,-38.856Z" style="fill:#134e4a;fill-rule:nonzero;"/><path d="M360.183,471.231l-0,38.856c-0,3.569 -1.077,6.707 -3.23,9.414c-2.708,3.445 -6.492,5.168 -11.352,5.168c-4.861,0 -8.615,-1.692 -11.26,-5.076c-2.215,-2.83 -3.323,-5.999 -3.323,-9.506l0,-24.273c0,-3.631 1.077,-6.799 3.23,-9.507c2.646,-3.384 6.43,-5.076 11.353,-5.076l4.799,0c-0,-1.784 -0.477,-3.046 -1.431,-3.784c-0.953,-0.738 -2.076,-1.107 -3.368,-1.107l-4.892,-0c-1.292,-0 -2.43,-0.462 -3.415,-1.385c-0.984,-0.923 -1.477,-2.061 -1.477,-3.415c0,-1.415 0.462,-2.584 1.385,-3.507c0.923,-0.923 2.092,-1.384 3.507,-1.384l4.892,-0c3.568,-0 6.706,1.076 9.414,3.23c3.445,2.707 5.168,6.491 5.168,11.352Zm-9.783,38.856l-0,-29.165l-4.799,-0c-1.785,-0 -3.046,0.477 -3.785,1.431c-0.738,0.953 -1.107,2.107 -1.107,3.461l-0,24.181c-0,1.415 0.354,2.584 1.061,3.507c0.708,0.923 1.985,1.384 3.831,1.384c1.722,0 3.014,-0.523 3.876,-1.569c0.615,-0.8 0.923,-1.877 0.923,-3.23Z" style="fill:#134e4a;fill-rule:nonzero;"/><path d="M394.885,471.231l0,4.799c0,1.354 -0.476,2.508 -1.43,3.461c-0.954,0.954 -2.107,1.431 -3.461,1.431c-1.354,-0 -2.507,-0.477 -3.461,-1.431c-0.954,-0.953 -1.431,-2.107 -1.431,-3.461l0,-4.799c0,-1.353 -0.307,-2.43 -0.923,-3.23c-0.861,-1.108 -2.153,-1.661 -3.876,-1.661c-1.784,-0 -3.046,0.476 -3.784,1.43c-0.738,0.954 -1.108,2.108 -1.108,3.461l0,38.764c0,1.415 0.354,2.584 1.062,3.507c0.707,0.923 1.984,1.384 3.83,1.384c1.723,0 3.015,-0.523 3.876,-1.569c0.616,-0.8 0.923,-1.877 0.923,-3.23l0,-4.892c0,-1.353 0.462,-2.492 1.385,-3.415c0.923,-0.923 2.092,-1.384 3.507,-1.384c1.292,-0 2.43,0.461 3.415,1.384c0.984,0.923 1.476,2.062 1.476,3.415l0,4.892c0,3.569 -1.076,6.707 -3.23,9.414c-2.707,3.445 -6.491,5.168 -11.352,5.168c-4.861,0 -8.614,-1.692 -11.26,-5.076c-2.215,-2.83 -3.322,-5.999 -3.322,-9.506l-0,-38.856c-0,-3.63 1.076,-6.799 3.23,-9.506c2.646,-3.384 6.43,-5.076 11.352,-5.076c4.861,-0 8.614,1.692 11.26,5.076c2.215,2.769 3.322,5.937 3.322,9.506Z" style="fill:#134e4a;fill-rule:nonzero;"/><path d="M429.588,461.54l-0,58.238c-0,1.353 -0.477,2.507 -1.431,3.461c-0.953,0.953 -2.107,1.43 -3.461,1.43c-1.353,0 -2.507,-0.477 -3.461,-1.43c-0.953,-0.954 -1.43,-2.108 -1.43,-3.461l-0,-9.691l-9.691,-0l-0,9.691c-0,1.353 -0.477,2.507 -1.431,3.461c-0.953,0.953 -2.107,1.43 -3.461,1.43c-1.353,0 -2.492,-0.461 -3.415,-1.384c-0.922,-0.923 -1.384,-2.092 -1.384,-3.507l0,-58.238c0,-1.415 0.462,-2.584 1.384,-3.507c0.923,-0.923 2.062,-1.384 3.415,-1.384c1.354,-0 2.508,0.477 3.461,1.43c0.954,0.954 1.431,2.108 1.431,3.461l-0,38.856l9.691,-0l-0,-38.856c-0,-1.415 0.461,-2.584 1.384,-3.507c0.923,-0.923 2.092,-1.384 3.507,-1.384c1.354,-0 2.508,0.477 3.461,1.43c0.954,0.954 1.431,2.108 1.431,3.461Z" style="fill:#134e4a;fill-rule:nonzero;"/><path d="M444.909,461.54c-0,1.354 -0.462,2.492 -1.385,3.415c-0.923,0.923 -2.092,1.385 -3.507,1.385c-1.292,-0 -2.43,-0.462 -3.415,-1.385c-0.984,-0.923 -1.476,-2.061 -1.476,-3.415c-0,-1.415 0.461,-2.584 1.384,-3.507c0.923,-0.923 2.092,-1.384 3.507,-1.384c1.354,-0 2.507,0.477 3.461,1.43c0.954,0.954 1.431,2.108 1.431,3.461Zm-0,14.49l-0,43.748c-0,1.353 -0.477,2.507 -1.431,3.461c-0.954,0.953 -2.107,1.43 -3.461,1.43c-1.353,0 -2.507,-0.477 -3.461,-1.43c-0.954,-0.954 -1.43,-2.108 -1.43,-3.461l-0,-43.748c-0,-1.353 0.461,-2.492 1.384,-3.414c0.923,-0.923 2.092,-1.385 3.507,-1.385c1.292,0 2.431,0.462 3.415,1.385c0.984,0.922 1.477,2.061 1.477,3.414Z" style="fill:#134e4a;fill-rule:nonzero;"/><path d="M479.611,471.231l0,48.547c0,1.353 -0.477,2.507 -1.43,3.461c-0.954,0.953 -2.108,1.43 -3.461,1.43c-1.354,0 -2.508,-0.477 -3.461,-1.43c-0.954,-0.954 -1.431,-2.108 -1.431,-3.461l0,-48.547c0,-1.353 -0.308,-2.43 -0.923,-3.23c-0.861,-1.108 -2.153,-1.661 -3.876,-1.661c-1.785,-0 -3.046,0.476 -3.784,1.43c-0.739,0.954 -1.108,2.108 -1.108,3.461l0,48.547c0,1.353 -0.477,2.507 -1.43,3.461c-0.954,0.953 -2.108,1.43 -3.461,1.43c-1.354,0 -2.492,-0.461 -3.415,-1.384c-0.923,-0.923 -1.385,-2.092 -1.385,-3.507l0,-48.547c0,-3.63 1.077,-6.799 3.231,-9.506c2.645,-3.384 6.429,-5.076 11.352,-5.076c4.861,-0 8.614,1.692 11.26,5.076c2.215,2.769 3.322,5.937 3.322,9.506Z" style="fill:#134e4a;fill-rule:nonzero;"/><path d="M514.314,471.231l-0,38.856c-0,4.861 -1.692,8.614 -5.076,11.26c-2.892,2.215 -6.061,3.322 -9.507,3.322l-4.891,0c-1.354,0 -2.508,-0.477 -3.461,-1.43c-0.954,-0.954 -1.431,-2.108 -1.431,-3.461c0,-1.354 0.477,-2.508 1.431,-3.461c0.953,-0.954 2.107,-1.431 3.461,-1.431l4.799,0c1.354,0 2.43,-0.308 3.23,-0.923c1.108,-0.8 1.662,-2.092 1.662,-3.876l-4.8,-0c-4.861,-0 -8.614,-1.692 -11.26,-5.076c-2.215,-2.831 -3.322,-5.999 -3.322,-9.507l-0,-24.273c-0,-3.63 1.077,-6.799 3.23,-9.506c2.646,-3.384 6.43,-5.076 11.352,-5.076c4.861,-0 8.614,1.692 11.26,5.076c2.215,2.769 3.323,5.937 3.323,9.506Zm-9.783,29.165l-0,-29.165c-0,-1.353 -0.308,-2.43 -0.923,-3.23c-0.862,-1.108 -2.154,-1.661 -3.877,-1.661c-1.784,-0 -3.045,0.476 -3.784,1.43c-0.738,0.954 -1.107,2.108 -1.107,3.461l-0,24.181c-0,1.415 0.353,2.6 1.061,3.553c0.708,0.954 1.984,1.431 3.83,1.431l4.8,-0Z" style="fill:#134e4a;fill-rule:nonzero;"/></g></svg>