<svg viewBox="0 0 500 500" xmlns="http://www.w3.org/2000/svg" xml:space="preserve" style="fill-rule:evenodd;clip-rule:evenodd;stroke-linejoin:round;stroke-miterlimit:2"><circle cx="266.667" cy="266.667" r="245.503" style="fill:#fcd34d"/><path d="m114.5 259.829-41.016-7.356c-6.787-1.221-13.297 3.304-14.518 10.091-1.221 6.803 3.304 13.297 10.091 14.518l41.016 7.357c6.803 1.22 13.297-3.304 14.518-10.091 1.221-6.804-3.304-13.298-10.091-14.519Zm17.5-86.458-33.529-24.74c-5.55-4.101-13.379-2.913-17.48 2.637-4.102 5.55-2.914 13.379 2.637 17.48l33.528 24.74c5.55 4.102 13.379 2.913 17.481-2.637 4.101-5.55 2.913-13.378-2.637-17.48Zm30.925-48.208c2.978 6.217 10.449 8.854 16.683 5.875 6.217-2.978 8.854-10.449 5.876-16.683L167.45 76.79c-2.978-6.217-10.449-8.854-16.683-5.875-6.217 2.978-8.854 10.449-5.876 16.682l18.034 37.565Zm312.408 136.474c-1.22-6.787-7.715-11.311-14.518-10.091l-41.016 7.357c-6.803 1.221-11.311 7.715-10.091 14.518 1.221 6.804 7.715 11.312 14.518 10.091l41.016-7.356c6.787-1.221 11.312-7.715 10.091-14.519Zm-54.791-71.108 32.063-26.611c5.306-4.411 6.039-12.288 1.628-17.595-4.411-5.306-12.288-6.038-17.595-1.627l-32.063 26.611c-5.306 4.411-6.039 12.288-1.628 17.595 4.395 5.289 12.288 6.022 17.595 1.627ZM378.338 70.917c-6.218-2.979-13.689-.358-16.683 5.876l-18.018 37.564c-2.978 6.218-.358 13.689 5.876 16.683 6.217 2.979 13.688.358 16.683-5.875L384.213 87.6c2.979-6.234.358-13.689-5.875-16.683ZM266.896 100h.049c6.803-.049 12.272-5.599 12.207-12.403l-.326-42.041c-.032-6.803-5.582-12.272-12.386-12.223h-.049c-6.803.048-12.272 5.599-12.207 12.402l.326 42.042c.032 6.803 5.582 12.272 12.386 12.223Z" style="fill:#124d4a;fill-rule:nonzero"/><path d="M374.967 233.417a26.23 26.23 0 0 0-14.014-20.248c-6.006-3.109-12.842-3.743-19.32-1.855l10.222-20.004c6.966-13.655 1.562-30.501-12.061-37.532-6.657-3.434-14.241-4.069-21.37-1.774a28.49 28.49 0 0 0-6.055 2.816c-.179-2.051-.553-4.102-1.204-6.12-2.263-7.113-7.162-12.908-13.802-16.342-6.624-3.418-14.193-4.069-21.306-1.79a28.43 28.43 0 0 0-7.373 3.597c-.96-9.05-6.282-17.448-14.941-21.924-13.688-7.064-30.566-1.693-37.647 11.996l-25.553 49.462c-10.482 4.688-19.01 13.233-23.6 24.316l-18.848 45.621c-6.152 14.876-3.971 32.129 5.697 45.004l53.646 71.517c.537.716.83 1.595.83 2.49l.016 92.3c0 8.903 5.615 16.797 13.981 19.678 11.068 3.809 28.939 8.334 51.35 8.334 15.951 0 34.18-2.295 53.909-8.757 8.43-2.767 14.111-10.694 14.111-19.727v-74.608c0-3.516 1.497-6.901 4.101-9.261 9.636-8.725 26.237-28.012 29.265-59.521v-73.863c0-.618.065-3.06-.033-3.808l-.001.003Z" style="fill:#a5f3fc"/><path d="M333.054 228.257a17.693 17.693 0 0 1 10.449-8.838 17.822 17.822 0 0 1 13.639 1.14 17.896 17.896 0 0 1 9.571 13.818c.032.423-.049 2.23-.049 2.848v4.916l.016 68.537c-2.734 28.32-17.805 45.833-26.53 53.742-.39.342-.667.781-1.025 1.155-3.581 3.776-5.697 8.724-5.778 13.949 0 .114-.032.228-.032.342v74.608c0 5.42-3.37 10.156-8.366 11.816-45.117 14.812-81.984 6.641-99.95.472-4.997-1.725-8.366-6.461-8.366-11.8l-.016-92.333a12.52 12.52 0 0 0-2.507-7.487l-53.629-71.517c-7.91-10.546-9.684-24.642-4.655-36.816l18.847-45.621a37.496 37.496 0 0 1 9.587-13.59c3.565-3.207 7.731-5.616 12.256-7.259 4.036-1.465 8.333-2.344 12.809-2.344h49.821l-2.8 5.387a6.852 6.852 0 0 0 .228 6.82 6.882 6.882 0 0 0 5.941 3.353h25.081c.065 0 .114-.016.179-.016a22.837 22.837 0 0 1-.976 2.002c-.033.048-.049.113-.082.162a27.807 27.807 0 0 1-4.915 6.413c-5.273 5.144-12.223 7.976-19.629 7.796l-19.287-.162c-4.183.049-8.073 2.099-10.417 5.55-.195.293-.472.537-.651.846l-11.49 20.622-1.172 2.099a12.445 12.445 0 0 0-.586 11.019v.033c.7 1.644 1.758 3.06 3.027 4.231 1.107 1.026 2.409 1.791 3.841 2.344.472.179.912.407 1.416.537.163.049 5.469 1.449 12.614 4.476a94.59 94.59 0 0 1 3.89 1.742 88.731 88.731 0 0 1 3.792 1.855c4.053 2.083 8.285 4.606 12.321 7.585a60.27 60.27 0 0 1 3.451 2.734c.423.358.846.732 1.269 1.107a51.874 51.874 0 0 1 2.181 2.051 76.399 76.399 0 0 1 2.246 2.343c1.856 2.051 3.548 4.248 5.013 6.608a41.593 41.593 0 0 1 2.165 4.037 35.998 35.998 0 0 1 1.595 3.922 35.33 35.33 0 0 1 1.742 12.891v32.21a4.153 4.153 0 0 0 4.166 4.167 4.154 4.154 0 0 0 4.167-4.167v-31.998c.293-6.234-.667-11.866-2.49-16.976.83-.749 1.611-1.563 2.278-2.507l1.709-2.408c1.839-.212 3.679-.538 5.469-1.107a27.696 27.696 0 0 0 5.078-2.197 26.42 26.42 0 0 0 2.572 9.765l-1.725 4.835c-2.214 6.217-.31 13.004 4.378 17.301 1.025.944 2.132 1.79 3.418 2.457a16.027 16.027 0 0 0 7.357 1.791c5.111 0 10.107-2.409 13.216-6.787l4.15-5.859c.261-.065.505-.098.765-.179 6.674-2.149 12.126-6.771 15.316-13.005l9.343-18.213c1.041-2.051.244-4.557-1.807-5.599-2.051-1.042-4.558-.244-5.599 1.807l-9.343 18.212c-.96 1.872-2.262 3.484-3.743 4.883-.049-.602-.098-1.204-.228-1.79a12.253 12.253 0 0 0-6.283-7.992l-9.733-5.029a12.292 12.292 0 0 0-10.123-.521c-1.335.521-2.523 1.335-3.581 2.263 0-2.751.553-5.534 1.904-8.155l.293-.585c.244-.424.505-.847.733-1.286l10.286-20.15 11.978-23.306Z" style="fill:#a5f3fc"/><path d="M327.47 292.335a3.86 3.86 0 0 1 2.019 2.556 3.883 3.883 0 0 1-.619 3.206l-6.77 9.538-.163.212c-2.246 3.157-6.511 4.199-9.945 2.408-.716-.374-1.318-.846-1.872-1.383a7.772 7.772 0 0 1-2.002-7.747c.033-.131.066-.277.098-.407l4.004-11.231a3.884 3.884 0 0 1 2.262-2.344 4.089 4.089 0 0 1 1.449-.276c.619 0 1.237.146 1.79.439l7.422 3.841 2.327 1.188Zm-57.975-22.884 1.286-3.613c.391-1.074 1.188-1.921 2.263-2.327.472-.196.96-.277 1.448-.277.619 0 1.237.146 1.791.439l9.732 5.013c1.026.521 1.742 1.432 2.019 2.572a3.879 3.879 0 0 1-.619 3.206l-6.315 8.887c-1.839-3.044-4.004-5.843-6.364-8.431a64.916 64.916 0 0 0-4.638-4.574c-.228-.211-.472-.406-.7-.602l.097-.293Z" style="fill:#a5f3fc"/><path d="M320.976 159.931a19.705 19.705 0 0 1 6.022-.944c3.093 0 6.153.733 8.968 2.197 9.554 4.948 13.347 16.748 8.464 26.335l-31.137 60.921-10.286 19.987a19.364 19.364 0 0 1-7.162 7.373c.651-2.083.798-4.33.26-6.494a12.32 12.32 0 0 0-6.282-8.008l-9.733-5.013a12.225 12.225 0 0 0-10.124-.505c-1.351.537-2.523 1.335-3.58 2.279.113-2.718.764-5.452 2.083-8.024l30.876-60.433c2.946-2.198 5.322-5.16 6.673-8.708.602-1.579.651-3.288.277-4.883l3.076-6.006c.032-.065.049-.114.081-.179l.065-.146c2.393-4.688 6.462-8.154 11.459-9.749Zm-62.825 101.626a110.333 110.333 0 0 0-6.038-3.434l1.058-1.498c1.758-.39 3.467-.878 5.111-1.595a28.249 28.249 0 0 0-.13 6.527h-.001Zm-28.271-18.571c.309-.862.927-1.497 1.692-1.953.196-.114.358-.293.57-.374a3.827 3.827 0 0 1 3.239.163l9.733 5.029a3.86 3.86 0 0 1 2.018 2.555c.033.163 0 .326.016.505.114.96-.065 1.904-.634 2.701l-2.019 2.849c-8.317-3.63-14.746-5.339-15.527-5.534-.407-.098-.733-.26-1.042-.423l1.954-5.518Zm25.439 4.167-.097-.716a12.256 12.256 0 0 0-6.283-7.992l-9.733-5.029c-2.1-1.091-4.459-1.465-6.787-1.253l6.69-11.996c.748-1.334 2.327-2.116 3.694-2.116l19.287.179a35.418 35.418 0 0 0 14.437-2.832l-11.865 22.982c-2.1 4.069-5.469 7.015-9.343 8.773Zm13.298-69.271h29.622c-.097.261-.228.488-.342.733a11.416 11.416 0 0 1-3.613 4.378c-.439.325-.895.602-1.367.862-.049.017-.081.049-.13.082-.879.456-1.807.781-2.784.993-.781.179-1.578.293-2.392.293h-22.803l3.76-7.227.049-.114Zm-45.103-49.835c4.948-9.603 16.796-13.379 26.416-8.415 9.603 4.948 13.378 16.797 8.414 26.4l-12.207 23.633h-36.816c-2.588 0-5.143.244-7.633.651l21.826-42.269Zm55.079 10.449a19.397 19.397 0 0 1 14.941 1.269 19.52 19.52 0 0 1 9.684 11.459c1.579 4.964 1.14 10.237-1.237 14.86l-1.904 3.711c-.602-.131-1.221-.228-1.855-.228H266.06c-.26 0-.488.065-.732.097h-9.31l11.1-21.484c2.409-4.655 6.478-8.105 11.475-9.684Z" style="fill:#a5f3fc"/><path d="M374.967 233.417a26.23 26.23 0 0 0-14.014-20.248c-6.006-3.109-12.842-3.743-19.32-1.855l10.222-20.004c6.966-13.655 1.562-30.501-12.061-37.532-6.657-3.434-14.241-4.069-21.37-1.774a28.49 28.49 0 0 0-6.055 2.816c-.179-2.051-.553-4.102-1.204-6.12-2.263-7.113-7.162-12.908-13.802-16.342-6.624-3.418-14.193-4.069-21.306-1.79a28.43 28.43 0 0 0-7.373 3.597c-.96-9.05-6.282-17.448-14.941-21.924-13.688-7.064-30.566-1.693-37.647 11.996l-25.553 49.462c-10.482 4.688-19.01 13.233-23.6 24.316l-18.848 45.621c-6.152 14.876-3.971 32.129 5.697 45.004l53.646 71.517c.537.716.83 1.595.83 2.49l.016 92.3c0 8.903 5.615 16.797 13.981 19.678 11.068 3.809 28.939 8.334 51.35 8.334 15.951 0 34.18-2.295 53.909-8.757 8.43-2.767 14.111-10.694 14.111-19.727v-74.608c0-3.516 1.497-6.901 4.101-9.261 9.636-8.725 26.237-28.012 29.265-59.521v-73.863c0-.618.065-3.06-.033-3.808l-.001.003Zm-41.913-5.16a17.693 17.693 0 0 1 10.449-8.838 17.825 17.825 0 0 1 13.64 1.139 17.9 17.9 0 0 1 9.57 13.819c.032.423-.049 2.23-.049 2.848v4.916l.016 68.537c-2.734 28.32-17.805 45.833-26.53 53.742-.39.342-.667.781-1.025 1.155-3.581 3.776-5.697 8.724-5.778 13.949 0 .114-.032.228-.032.342v74.608c0 5.42-3.37 10.156-8.366 11.816-45.117 14.812-81.984 6.641-99.95.472-4.997-1.725-8.366-6.461-8.366-11.8l-.016-92.333a12.52 12.52 0 0 0-2.507-7.487l-53.629-71.517c-7.91-10.546-9.684-24.642-4.655-36.816l18.847-45.621a37.496 37.496 0 0 1 9.587-13.59c3.565-3.207 7.731-5.616 12.256-7.259 4.036-1.465 8.333-2.344 12.809-2.344h49.821l-2.8 5.387a6.852 6.852 0 0 0 .228 6.82 6.882 6.882 0 0 0 5.941 3.353h25.081c.065 0 .114-.016.179-.016a22.837 22.837 0 0 1-.976 2.002c-.033.048-.049.113-.082.162a27.807 27.807 0 0 1-4.915 6.413c-5.273 5.144-12.223 7.976-19.629 7.796l-19.287-.162c-4.183.049-8.073 2.099-10.417 5.55-.195.293-.472.537-.651.846l-11.49 20.622-1.172 2.099a12.445 12.445 0 0 0-.586 11.019v.033c.7 1.644 1.758 3.06 3.027 4.231 1.107 1.026 2.409 1.791 3.841 2.344.472.179.912.407 1.416.537.163.049 5.469 1.449 12.614 4.476a94.59 94.59 0 0 1 3.89 1.742 88.731 88.731 0 0 1 3.792 1.855c4.053 2.083 8.285 4.606 12.321 7.585a60.27 60.27 0 0 1 3.451 2.734c.423.358.846.732 1.269 1.107a51.874 51.874 0 0 1 2.181 2.051 76.399 76.399 0 0 1 2.246 2.343c1.856 2.051 3.548 4.248 5.013 6.608a41.593 41.593 0 0 1 2.165 4.037 35.998 35.998 0 0 1 1.595 3.922 35.33 35.33 0 0 1 1.742 12.891v32.21a4.153 4.153 0 0 0 4.166 4.167 4.154 4.154 0 0 0 4.167-4.167v-31.998c.293-6.234-.667-11.866-2.49-16.976.83-.749 1.611-1.563 2.278-2.507l1.709-2.408c1.839-.212 3.679-.538 5.469-1.107a27.696 27.696 0 0 0 5.078-2.197 26.42 26.42 0 0 0 2.572 9.765l-1.725 4.835c-2.214 6.217-.31 13.004 4.378 17.301 1.025.944 2.132 1.79 3.418 2.457a16.027 16.027 0 0 0 7.357 1.791c5.111 0 10.107-2.409 13.216-6.787l4.15-5.859c.261-.065.505-.098.765-.179 6.674-2.149 12.126-6.771 15.316-13.005l9.343-18.213c1.041-2.051.244-4.557-1.807-5.599-2.051-1.042-4.558-.244-5.599 1.807l-9.343 18.212c-.96 1.872-2.262 3.484-3.743 4.883-.049-.602-.098-1.204-.228-1.79a12.253 12.253 0 0 0-6.283-7.992l-.602-.309-9.131-4.72a12.292 12.292 0 0 0-10.123-.521c-1.335.521-2.523 1.335-3.581 2.263 0-2.751.553-5.534 1.904-8.155l.293-.585c.244-.424.505-.847.733-1.286l10.286-20.15 11.978-23.306Zm-64.437-50.375h29.622c-.097.261-.228.488-.342.733a11.416 11.416 0 0 1-3.613 4.378c-.439.325-.895.602-1.367.862-.049.017-.081.049-.13.082-.879.456-1.807.781-2.784.993-.781.179-1.578.293-2.392.293h-22.803l3.76-7.227.049-.114Zm-10.466 83.675a110.333 110.333 0 0 0-6.038-3.434l1.058-1.498c1.758-.39 3.467-.878 5.111-1.595a28.249 28.249 0 0 0-.13 6.527h-.001Zm-28.271-18.571c.309-.862.927-1.497 1.692-1.953.196-.114.358-.293.57-.374a3.827 3.827 0 0 1 3.239.163l9.733 5.029a3.86 3.86 0 0 1 2.018 2.555c.033.163 0 .326.016.505.114.96-.065 1.904-.634 2.701l-2.019 2.849c-8.317-3.63-14.746-5.339-15.527-5.534-.407-.098-.733-.26-1.042-.423l1.954-5.518Zm25.439 4.167c-.049-.244-.032-.472-.097-.716a12.256 12.256 0 0 0-6.283-7.992l-9.733-5.029c-2.1-1.091-4.459-1.465-6.787-1.253l6.69-11.996c.748-1.334 2.327-2.116 3.694-2.116l19.287.179a35.418 35.418 0 0 0 14.437-2.832l-11.865 22.982c-2.1 4.069-5.469 7.015-9.343 8.773Zm14.176 22.298 1.286-3.613c.391-1.074 1.188-1.921 2.263-2.327.472-.196.96-.277 1.448-.277.619 0 1.237.146 1.791.439l9.732 5.013c1.026.521 1.742 1.432 2.019 2.572a3.879 3.879 0 0 1-.619 3.206l-2.848 4.004-3.467 4.883c-1.839-3.044-4.004-5.843-6.364-8.431a64.916 64.916 0 0 0-4.638-4.574c-.228-.211-.472-.406-.7-.602l.097-.293Zm57.975 22.884a3.86 3.86 0 0 1 2.019 2.556 3.883 3.883 0 0 1-.619 3.206l-.911 1.286-5.859 8.252-.163.212c-2.246 3.157-6.511 4.199-9.945 2.408-.716-.374-1.318-.846-1.872-1.383a7.772 7.772 0 0 1-2.002-7.747c.033-.131.066-.277.098-.407l3.044-8.545.96-2.686a3.884 3.884 0 0 1 2.262-2.344 4.089 4.089 0 0 1 1.449-.276c.619 0 1.237.146 1.79.439l7.422 3.841 2.327 1.188Zm-6.494-132.404a19.735 19.735 0 0 1 6.022-.944c3.093 0 6.153.733 8.968 2.198 9.554 4.947 13.347 16.747 8.464 26.334l-31.137 60.921-10.286 19.987a19.364 19.364 0 0 1-7.162 7.373c.651-2.083.798-4.33.26-6.494a12.32 12.32 0 0 0-6.282-8.008l-9.733-5.013a12.225 12.225 0 0 0-10.124-.505c-1.351.538-2.523 1.335-3.58 2.279.113-2.718.764-5.452 2.083-8.024l30.876-60.433c2.946-2.198 5.322-5.16 6.673-8.708.602-1.579.651-3.288.277-4.883l2.181-4.264.895-1.742c.032-.065.049-.114.081-.179l.065-.146c2.393-4.688 6.462-8.154 11.459-9.749Zm-42.383-21.435a19.402 19.402 0 0 1 14.941 1.269 19.52 19.52 0 0 1 9.684 11.459c1.579 4.964 1.14 10.237-1.237 14.86l-.895 1.758-1.009 1.953c-.602-.131-1.221-.228-1.855-.228H266.06c-.26 0-.488.065-.732.097h-9.31l11.1-21.484c2.409-4.655 6.478-8.105 11.475-9.684Zm-55.079-10.449c4.948-9.603 16.796-13.379 26.416-8.415 9.603 4.948 13.378 16.797 8.414 26.4l-12.207 23.633h-36.816c-2.588 0-5.143.244-7.633.651l21.826-42.269Z" style="fill:#124d4a;fill-rule:nonzero"/></svg>